<?xml version="1.0" encoding="UTF-8"?>
<svg version="1.1" xmlns="http://www.w3.org/2000/svg" width="128" height="128">
<path d="M0 0 C0.64936523 0.32258789 1.29873047 0.64517578 1.96777344 0.97753906 C13.75010066 6.88189381 25.12030127 13.43613156 36.33203125 20.35546875 C38.18779978 21.49936121 40.04747902 22.63692349 41.91015625 23.76953125 C44.88677214 25.5818906 47.85082754 27.41334227 50.8125 29.25 C51.72555908 29.80397461 52.63861816 30.35794922 53.5793457 30.92871094 C61.63061809 35.98254316 68.07687013 41.67730365 71 51 C72.16472692 60.52164254 71.79406405 69.07895907 66 77 C59.84720565 83.50028082 52.70798225 87.75156382 44.875 91.9375 C42.63708282 93.1610463 40.40009819 94.38629989 38.1640625 95.61328125 C36.56159668 96.48847412 36.56159668 96.48847412 34.92675781 97.38134766 C31.31429664 99.37923034 27.77116469 101.47141932 24.25 103.625 C18.21854445 107.28264015 12.15775379 110.88704108 6.0625 114.4375 C5.18561523 114.95844238 4.30873047 115.47938477 3.40527344 116.01611328 C-5.62794029 121.24323638 -13.59129447 123.22104954 -24 121 C-31.42286188 118.1773591 -37.77337521 113.82232371 -42 107 C-44.32523268 101.55733031 -45.45657977 96.96904852 -45.51171875 91.0234375 C-45.52985123 90.27169754 -45.5479837 89.51995758 -45.56666565 88.74543762 C-45.62162809 86.28866505 -45.65550489 83.83217108 -45.6875 81.375 C-45.71843526 79.65273903 -45.75002125 77.93048964 -45.78222656 76.20825195 C-45.86081562 71.71365793 -45.91733077 67.2190516 -45.96746826 62.72406006 C-45.99973179 60.02245862 -46.04000256 57.32108683 -46.08251953 54.61962891 C-46.14893735 50.29842681 -46.19661174 45.97741021 -46.22915649 41.65582275 C-46.24290961 40.02715579 -46.26118464 38.3985199 -46.28427124 36.7699585 C-46.43213528 25.49930336 -46.30430638 14.97743728 -38.87109375 5.8203125 C-27.68638503 -5.06084462 -13.64046123 -6.80260728 0 0 Z M4.0234375 34.125 C2.59887486 34.18556758 1.1743936 34.24807937 -0.25 34.3125 C-0.93529785 34.33481689 -1.6205957 34.35713379 -2.32666016 34.38012695 C-6.71409697 34.61721338 -9.5873162 35.2026248 -13 38 C-14.92073382 40.3428291 -16.55923257 42.82298025 -18.1875 45.375 C-18.84395508 46.365 -18.84395508 46.365 -19.51367188 47.375 C-23.61687818 53.34756467 -23.61687818 53.34756467 -24.92578125 60.27734375 C-23.54007763 64.35259869 -21.39591502 67.8818083 -19.1875 71.5625 C-18.52911133 72.69461914 -18.52911133 72.69461914 -17.85742188 73.84960938 C-14.17510668 80.57653185 -14.17510668 80.57653185 -8.01953125 84.609375 C-5.34456034 84.77981562 -2.67966108 84.91820326 0 85 C1.019729 85.04664795 1.019729 85.04664795 2.06005859 85.09423828 C4.33164169 85.19308915 6.60196061 85.25738429 8.875 85.3125 C9.61258545 85.3424707 10.3501709 85.37244141 11.11010742 85.40332031 C14.37843796 85.43775137 16.51159923 85.34480407 19.21875 83.43359375 C21.5195264 80.29020845 23.62408051 77.09153554 25.625 73.75 C26.01945312 73.11964844 26.41390625 72.48929688 26.8203125 71.83984375 C29.55717708 67.29997716 31.22050214 63.2708903 32 58 C31.23850487 54.89105891 31.23850487 54.89105891 29.5625 52.125 C29.00175781 51.10921875 28.44101563 50.0934375 27.86328125 49.046875 C23.01381092 41.08124552 23.01381092 41.08124552 17 34 C12.64999366 33.77499967 8.37605029 33.98817917 4.0234375 34.125 Z " fill="#2C7553" transform="translate(51,5)"/>
<path d="M0 0 C-0.66 0.33 -1.32 0.66 -2 1 C-2 1.99 -2 2.98 -2 4 C-3.625 4.75 -3.625 4.75 -6 5 C-9.25 3.0625 -9.25 3.0625 -12 1 C-12.99 1.66 -13.98 2.32 -15 3 C-15.66 2.34 -16.32 1.68 -17 1 C-24.59 8.59 -32.18 16.18 -40 24 C-37.78918149 24.10540926 -37.78918149 24.10540926 -35 23 C-35.33 24.32 -35.66 25.64 -36 27 C-33.03191735 26.29159439 -33.03191735 26.29159439 -31.6875 24.5 C-29.28668749 22.36594444 -27.14374782 22.26755301 -24 22 C-23.01 22.495 -23.01 22.495 -22 23 C-20.26131256 23.15266612 -18.51752499 23.24932596 -16.7734375 23.31640625 C-15.7421875 23.35830078 -14.7109375 23.40019531 -13.6484375 23.44335938 C-12.02808594 23.50233398 -12.02808594 23.50233398 -10.375 23.5625 C-8.74304687 23.62727539 -8.74304687 23.62727539 -7.078125 23.69335938 C-4.3855483 23.7996453 -1.69287747 23.90168057 1 24 C1.99 25.98 1.99 25.98 3 28 C1.515 27.01 1.515 27.01 0 26 C-2.65028595 25.7831476 -2.65028595 25.7831476 -5.62109375 25.953125 C-6.72130859 25.99566406 -7.82152344 26.03820313 -8.95507812 26.08203125 C-10.10427734 26.13746094 -11.25347656 26.19289062 -12.4375 26.25 C-14.15549805 26.30994141 -14.15549805 26.30994141 -15.90820312 26.37109375 C-22.78394243 26.45116806 -22.78394243 26.45116806 -29 29 C-30.38837773 30.50798302 -30.38837773 30.50798302 -31.5078125 32.30078125 C-31.93707031 32.94853516 -32.36632812 33.59628906 -32.80859375 34.26367188 C-33.24300781 34.93978516 -33.67742188 35.61589844 -34.125 36.3125 C-34.56714844 36.97701172 -35.00929688 37.64152344 -35.46484375 38.32617188 C-39.62235341 44.36834065 -39.62235341 44.36834065 -40.875 51.375 C-40.07977139 53.76068584 -39.15365522 55.54308864 -37.875 57.6875 C-37.25625 58.780625 -36.6375 59.87375 -36 61 C-36.33 61.66 -36.66 62.32 -37 63 C-38.37562854 61.71034824 -39.70766393 60.37310707 -41 59 C-41 58.34 -41 57.68 -41 57 C-41.66 57 -42.32 57 -43 57 C-43 55.35 -43 53.7 -43 52 C-43.99 52 -44.98 52 -46 52 C-46.33 51.34 -46.66 50.68 -47 50 C-47.34611328 50.90492187 -47.34611328 50.90492187 -47.69921875 51.828125 C-49.72304362 56.78769582 -51.33224741 60.01782474 -56 63 C-56.66 62.34 -57.32 61.68 -58 61 C-59.485 61.495 -59.485 61.495 -61 62 C-63.24656675 52.8555603 -63.34004871 43.83776551 -63.31567383 34.48413086 C-63.31250169 31.93885903 -63.33609 29.39473938 -63.36132812 26.84960938 C-63.40490062 15.82745241 -63.1324678 5.76574587 -55.87109375 -3.1796875 C-37.45501559 -21.0959556 -18.7952483 -10.20438075 0 0 Z M-41 26 C-44.465 28.97 -44.465 28.97 -48 32 C-47.34 32.66 -46.68 33.32 -46 34 C-43.43750025 31.68767578 -43.43750025 31.68767578 -41 29 C-41 28.01 -41 27.02 -41 26 Z " fill="#B9E987" transform="translate(68,14)"/>
<path d="M0 0 C-1.65 0.66 -3.3 1.32 -5 2 C-5 2.66 -5 3.32 -5 4 C-5.88155762 4.3933252 -6.76311523 4.78665039 -7.67138672 5.19189453 C-11.17123985 7.09301763 -13.4639509 9.10563325 -16.2578125 11.9296875 C-16.72814911 12.40189728 -17.19848572 12.87410706 -17.68307495 13.36062622 C-18.66970234 14.35393427 -19.65274684 15.35081292 -20.63232422 16.35107422 C-22.12087491 17.87078855 -23.61983498 19.37956691 -25.12109375 20.88671875 C-33.13526481 28.64174375 -33.13526481 28.64174375 -39 38 C-40.32 38 -41.64 38 -43 38 C-44.09025551 13.692334 -44.09025551 13.692334 -35.9453125 4.7421875 C-26.12813921 -4.73529121 -11.21912185 -9.15244151 0 0 Z " fill="#F2FA99" transform="translate(50,7)"/>
<path d="M0 0 C1.77166975 0.14835948 3.54767612 0.24770018 5.32421875 0.31640625 C6.86625977 0.37924805 6.86625977 0.37924805 8.43945312 0.44335938 C10.04723633 0.50233398 10.04723633 0.50233398 11.6875 0.5625 C12.77095703 0.60568359 13.85441406 0.64886719 14.97070312 0.69335938 C17.64700791 0.79946838 20.32340526 0.90152361 23 1 C23.99 2.98 23.99 2.98 25 5 C24.01 4.34 23.02 3.68 22 3 C19.34971405 2.7831476 19.34971405 2.7831476 16.37890625 2.953125 C14.72858398 3.01693359 14.72858398 3.01693359 13.04492188 3.08203125 C11.89572266 3.13746094 10.74652344 3.19289063 9.5625 3.25 C8.41716797 3.28996094 7.27183594 3.32992187 6.09179688 3.37109375 C-0.78394243 3.45116806 -0.78394243 3.45116806 -7 6 C-8.38837773 7.50798302 -8.38837773 7.50798302 -9.5078125 9.30078125 C-9.93707031 9.94853516 -10.36632812 10.59628906 -10.80859375 11.26367188 C-11.24300781 11.93978516 -11.67742188 12.61589844 -12.125 13.3125 C-12.56714844 13.97701172 -13.00929688 14.64152344 -13.46484375 15.32617188 C-17.62235341 21.36834065 -17.62235341 21.36834065 -18.875 28.375 C-18.07977139 30.76068584 -17.15365522 32.54308864 -15.875 34.6875 C-15.25625 35.780625 -14.6375 36.87375 -14 38 C-14.33 38.66 -14.66 39.32 -15 40 C-16.37562854 38.71034824 -17.70766393 37.37310707 -19 36 C-19 35.34 -19 34.68 -19 34 C-19.66 34 -20.32 34 -21 34 C-21 32.35 -21 30.7 -21 29 C-21.99 29 -22.98 29 -24 29 C-24.33 28.34 -24.66 27.68 -25 27 C-25.23074219 27.60328125 -25.46148437 28.2065625 -25.69921875 28.828125 C-27.72304362 33.78769582 -29.33224741 37.01782474 -34 40 C-34.66 39.34 -35.32 38.68 -36 38 C-37.485 38.495 -37.485 38.495 -39 39 C-39.95261487 34.23692563 -40.08333357 29.8333472 -40 25 C-39.67 25 -39.34 25 -39 25 C-38.67 26.65 -38.34 28.3 -38 30 C-37.34 28.35 -36.68 26.7 -36 25 C-35.34 25 -34.68 25 -34 25 C-34.07605469 24.10796875 -34.15210938 23.2159375 -34.23046875 22.296875 C-33.95220968 18.31635538 -32.9983304 17.12944849 -30.3125 14.25 C-29.28576172 13.11304688 -29.28576172 13.11304688 -28.23828125 11.953125 C-26 10 -26 10 -23.4296875 8.9921875 C-20.48216818 7.78853813 -19.56300221 6.49371377 -17.8125 3.875 C-16.33203125 1.6796875 -16.33203125 1.6796875 -15 0 C-14.34 0 -13.68 0 -13 0 C-13.33 1.32 -13.66 2.64 -14 4 C-11.03439971 3.2812682 -11.03439971 3.2812682 -9.625 1.5 C-6.58728219 -1.30404721 -3.78010308 -1.26003436 0 0 Z " fill="#7DD477" transform="translate(46,37)"/>
<path d="M0 0 C0.33 0.99 0.66 1.98 1 3 C1.99 3 2.98 3 4 3 C4 4.65 4 6.3 4 8 C4.66 8 5.32 8 6 8 C6.3403125 9.175625 6.3403125 9.175625 6.6875 10.375 C7.72120904 13.203243 7.72120904 13.203243 10.3125 13.8125 C14.33583009 15.5902505 16.26072909 19.02452364 18 23 C17.67 23.66 17.34 24.32 17 25 C16.34 25 15.68 25 15 25 C14.34 24.34 13.68 23.68 13 23 C10.93125966 22.3574765 10.93125966 22.3574765 9 22 C8.34 19.69 7.68 17.38 7 15 C5.68 15.33 4.36 15.66 3 16 C3 15.34 3 14.68 3 14 C1.02 14.99 -0.96 15.98 -3 17 C-3.33 16.34 -3.66 15.68 -4 15 C-9.55832594 20.00249335 -10.47299488 25.19576562 -11.04296875 32.421875 C-10.98800047 35.71997178 -9.90897193 37.35680809 -8 40 C-7.3125 43.8125 -7.3125 43.8125 -7 47 C-5.68 47.33 -4.36 47.66 -3 48 C-3.75 49.9375 -3.75 49.9375 -5 52 C-7.078125 52.62890625 -7.078125 52.62890625 -9 53 C-9.81928886 51.75443908 -10.63015186 50.50333365 -11.4375 49.25 C-11.88996094 48.55390625 -12.34242187 47.8578125 -12.80859375 47.140625 C-15.30849172 42.64900505 -15.1336039 38.20791317 -15.09765625 33.171875 C-15.0962413 32.42286926 -15.09482635 31.67386353 -15.09336853 30.90216064 C-15.08778659 28.51806588 -15.07523745 26.13406622 -15.0625 23.75 C-15.05748266 22.13020969 -15.05292016 20.51041791 -15.04882812 18.890625 C-15.03782308 14.92704688 -15.02057091 10.96353955 -15 7 C-14.67 7 -14.34 7 -14 7 C-14 8.98 -14 10.96 -14 13 C-13.34 13 -12.68 13 -12 13 C-11.67 12.01 -11.34 11.02 -11 10 C-10.01 11.485 -10.01 11.485 -9 13 C-4.58042925 10.1332514 -3.12450289 7.55294801 -1.578125 2.70703125 C-1 1 -1 1 0 0 Z " fill="#33B764" transform="translate(21,63)"/>
<path d="M0 0 C0.928125 0.2475 0.928125 0.2475 1.875 0.5 C3.96063386 1.07634644 3.96063386 1.07634644 6 1 C6.33 0.67 6.66 0.34 7 0 C9.33297433 -0.04092937 11.66705225 -0.04241723 14 0 C10.55233068 2.87548783 7.06420249 5.25645088 3.17578125 7.49609375 C2.06396484 8.13740234 0.95214844 8.77871094 -0.19335938 9.43945312 C-0.76852295 9.76824463 -1.34368652 10.09703613 -1.9362793 10.43579102 C-3.66825195 11.42649 -5.39568122 12.42511814 -7.12304688 13.42382812 C-12.22964876 16.35828465 -17.35572523 19.25290967 -22.57421875 21.984375 C-23.33436279 22.38237305 -24.09450684 22.78037109 -24.87768555 23.19042969 C-28.26271856 24.48167201 -30.56588727 23.97051012 -34 23 C-33.67 21.02 -33.34 19.04 -33 17 C-32.34 17.33 -31.68 17.66 -31 18 C-29.88625 17.5359375 -29.88625 17.5359375 -28.75 17.0625 C-26 16 -26 16 -22.9375 16.0625 C-19.5181971 15.98974887 -18.38882377 15.38882377 -16 13 C-15.67 12.01 -15.34 11.02 -15 10 C-15.99 9.67 -16.98 9.34 -18 9 C-14.57767028 7.85922343 -11.91326783 7.90184883 -8.3125 7.9375 C-6.54326172 7.95103516 -6.54326172 7.95103516 -4.73828125 7.96484375 C-3.83464844 7.97644531 -2.93101563 7.98804687 -2 8 C-2 6.35 -2 4.7 -2 3 C-1.34 3 -0.68 3 0 3 C0 2.01 0 1.02 0 0 Z " fill="#264541" transform="translate(71,102)"/>
<path d="M0 0 C5.64919388 0.89975571 9.85575255 3.47647805 14.75 6.3125 C15.62527344 6.79912109 16.50054687 7.28574219 17.40234375 7.78710938 C18.23378906 8.26599609 19.06523438 8.74488281 19.921875 9.23828125 C21.06027832 9.888573 21.06027832 9.888573 22.22167969 10.55200195 C24.32997091 12.26867895 24.64462661 13.35062769 25 16 C23.3603125 15.4740625 23.3603125 15.4740625 21.6875 14.9375 C18.09079627 13.66960546 18.09079627 13.66960546 15 15 C15 14.34 15 13.68 15 13 C13.35 13 11.7 13 10 13 C10 12.01 10 11.02 10 10 C7.66785852 8.79371992 5.50357861 7.8345262 3 7 C2.67 7.99 2.34 8.98 2 10 C-0.21701147 11.58965571 -2.57862473 12.72327486 -5 14 C-5.99 13.34 -6.98 12.68 -8 12 C-7.484375 11.401875 -6.96875 10.80375 -6.4375 10.1875 C-5.963125 9.465625 -5.48875 8.74375 -5 8 C-5.33 7.01 -5.66 6.02 -6 5 C-4.02 4.34 -2.04 3.68 0 3 C0 2.01 0 1.02 0 0 Z M-12 12 C-11.34 12 -10.68 12 -10 12 C-10.66 13.32 -11.32 14.64 -12 16 C-12.66 15.34 -13.32 14.68 -14 14 C-13.34 13.34 -12.68 12.68 -12 12 Z " fill="#5DC46D" transform="translate(66,15)"/>
<path d="M0 0 C0.66 0.66 1.32 1.32 2 2 C0.64068359 2.03867188 0.64068359 2.03867188 -0.74609375 2.078125 C-11.79776604 2.59270022 -18.68541092 4.69965894 -27.17578125 11.73046875 C-32.58802437 18.46390184 -33.57137907 25.13866016 -33.25 33.5625 C-33.23195313 34.47580078 -33.21390625 35.38910156 -33.1953125 36.33007812 C-33.14872701 38.55453514 -33.08335485 40.77666967 -33 43 C-31.68 43 -30.36 43 -29 43 C-29.44812018 45.1479894 -29.90878348 47.29336561 -30.375 49.4375 C-30.63023438 50.63246094 -30.88546875 51.82742187 -31.1484375 53.05859375 C-31.56996094 54.51458984 -31.56996094 54.51458984 -32 56 C-32.99 56.495 -32.99 56.495 -34 57 C-34.40729228 59.32156597 -34.74438677 61.6568787 -35 64 C-35.33 64 -35.66 64 -36 64 C-36.07476069 58.77135257 -36.12888763 53.54302372 -36.16479492 48.31396484 C-36.17978093 46.53917004 -36.20017682 44.76441163 -36.22631836 42.98974609 C-36.56626474 19.30014908 -36.56626474 19.30014908 -28.87109375 9.8203125 C-20.90383235 2.06928158 -10.96060287 -1.21784476 0 0 Z " fill="#D8EBB0" transform="translate(41,1)"/>
<path d="M0 0 C1.77166975 0.14835948 3.54767612 0.24770018 5.32421875 0.31640625 C6.86625977 0.37924805 6.86625977 0.37924805 8.43945312 0.44335938 C10.04723633 0.50233398 10.04723633 0.50233398 11.6875 0.5625 C12.77095703 0.60568359 13.85441406 0.64886719 14.97070312 0.69335938 C17.64700791 0.79946838 20.32340526 0.90152361 23 1 C23.66 2.32 24.32 3.64 25 5 C24.01 4.34 23.02 3.68 22 3 C19.34971405 2.7831476 19.34971405 2.7831476 16.37890625 2.953125 C14.72858398 3.01693359 14.72858398 3.01693359 13.04492188 3.08203125 C11.89572266 3.13746094 10.74652344 3.19289063 9.5625 3.25 C8.41716797 3.28996094 7.27183594 3.32992187 6.09179688 3.37109375 C-0.78600504 3.44683011 -0.78600504 3.44683011 -7 6 C-8.39048744 7.55753278 -8.39048744 7.55753278 -9.5078125 9.40625 C-9.93707031 10.06753906 -10.36632813 10.72882812 -10.80859375 11.41015625 C-11.24300781 12.09980469 -11.67742188 12.78945313 -12.125 13.5 C-13.00066289 14.86582987 -13.87818947 16.23046717 -14.7578125 17.59375 C-15.1408252 18.19896484 -15.52383789 18.80417969 -15.91845703 19.42773438 C-17 21 -17 21 -19 23 C-19 21.35 -19 19.7 -19 18 C-18.01 17.67 -17.02 17.34 -16 17 C-16.33 15.02 -16.66 13.04 -17 11 C-17.66 11 -18.32 11 -19 11 C-17.48832294 6.76730422 -14.69447201 5.33731903 -11 3 C-10.484375 2.443125 -9.96875 1.88625 -9.4375 1.3125 C-6.49214296 -1.37673904 -3.60232429 -1.20077476 0 0 Z " fill="#8BCE88" transform="translate(46,37)"/>
<path d="M0 0 C5.75 -0.125 5.75 -0.125 8 1 C4.30668397 9.44071322 -4.60193206 13.8112679 -12.375 17.9375 C-13.27605469 18.43056641 -14.17710938 18.92363281 -15.10546875 19.43164062 C-21.70767597 23 -21.70767597 23 -24 23 C-24.33 21.02 -24.66 19.04 -25 17 C-21.0186217 15.6728739 -17.14954773 15.93084087 -13 16 C-12.566875 15.071875 -12.566875 15.071875 -12.125 14.125 C-11 12 -11 12 -9 10 C-8.67 9.34 -8.34 8.68 -8 8 C-5.93359375 7.5859375 -5.93359375 7.5859375 -3.4375 7.375 C-2.61121094 7.30023438 -1.78492187 7.22546875 -0.93359375 7.1484375 C0.02353516 7.07496094 0.02353516 7.07496094 1 7 C0.4740625 5.824375 0.4740625 5.824375 -0.0625 4.625 C-0.5265625 3.325625 -0.5265625 3.325625 -1 2 C-0.67 1.34 -0.34 0.68 0 0 Z " fill="#1C3735" transform="translate(110,78)"/>
<path d="M0 0 C0.33 0.99 0.66 1.98 1 3 C1.99 3 2.98 3 4 3 C4 4.65 4 6.3 4 8 C3.4121875 8.08636719 2.824375 8.17273438 2.21875 8.26171875 C-0.61194539 9.20362267 -1.62508785 10.51573261 -3.5 12.8125 C-5.37507386 15.08105831 -7.08156553 17.07054316 -9.3125 19 C-11.87426267 22.03616316 -12.22613899 25.13069497 -13 29 C-13.33 29 -13.66 29 -14 29 C-14.97299156 24.14270355 -15.12038805 19.5499375 -15.0625 14.625 C-15.05798828 13.88894531 -15.05347656 13.15289062 -15.04882812 12.39453125 C-15.03715142 10.59631842 -15.01922011 8.79814803 -15 7 C-14.67 7 -14.34 7 -14 7 C-14 8.98 -14 10.96 -14 13 C-13.34 13 -12.68 13 -12 13 C-11.67 12.01 -11.34 11.02 -11 10 C-10.01 11.485 -10.01 11.485 -9 13 C-4.58042925 10.1332514 -3.12450289 7.55294801 -1.578125 2.70703125 C-1 1 -1 1 0 0 Z " fill="#4EC26C" transform="translate(21,63)"/>
<path d="M0 0 C-6.0546875 0.1953125 -6.0546875 0.1953125 -8 0 C-8.66 -0.66 -9.32 -1.32 -10 -2 C-16.764159 -3.25370188 -23.07161862 -1.19961378 -29 2 C-30.00824943 2.99168195 -31.01018103 3.98992158 -32 5 C-32.66 5 -33.32 5 -34 5 C-33.67 5.99 -33.34 6.98 -33 8 C-34.78346291 11.03188696 -35.59575156 11.86525052 -39 13 C-41.77005248 19.61734759 -41.62692907 26.9214699 -42 34 C-42.33 34 -42.66 34 -43 34 C-44.00832048 14.68506108 -44.00832048 14.68506108 -38 7 C-29.56946912 -2.3280779 -22.23745584 -4.19673731 -9.9765625 -4.984375 C-5.4260343 -5.00826229 -3.44535688 -2.81068588 0 0 Z " fill="#F8FAB2" transform="translate(50,7)"/>
<path d="M0 0 C0.33 0 0.66 0 1 0 C1.09796875 0.80824219 1.1959375 1.61648437 1.296875 2.44921875 C2.15370837 8.57262276 2.82941368 12.29127351 7 17 C7.75 20.8125 7.75 20.8125 8 24 C9.32 24.33 10.64 24.66 12 25 C11.25 26.9375 11.25 26.9375 10 29 C7.921875 29.62890625 7.921875 29.62890625 6 30 C5.18071114 28.75443908 4.36984814 27.50333365 3.5625 26.25 C3.11003906 25.55390625 2.65757813 24.8578125 2.19140625 24.140625 C0.27102065 20.69022727 -0.12560443 17.58462055 -0.09765625 13.671875 C-0.09282227 12.47304687 -0.09282227 12.47304687 -0.08789062 11.25 C-0.07951172 10.425 -0.07113281 9.6 -0.0625 8.75 C-0.05798828 7.90953125 -0.05347656 7.0690625 -0.04882812 6.203125 C-0.03707961 4.13538599 -0.01914522 2.06768376 0 0 Z " fill="#379565" transform="translate(6,86)"/>
<path d="M0 0 C0.66 0.66 1.32 1.32 2 2 C0.64068359 2.03867188 0.64068359 2.03867188 -0.74609375 2.078125 C-11.66109656 2.58633677 -19.16224233 4.51410128 -27.27734375 12 C-30.11903971 15.29920257 -31.4941093 18.96689669 -33 23 C-33.65092442 24.34108897 -34.31310239 25.67697547 -35 27 C-34.76158225 19.48984102 -33.0704505 14.63265527 -28 9 C-19.77616375 2.03553351 -10.82130046 -1.40276117 0 0 Z " fill="#BCBC93" transform="translate(41,1)"/>
<path d="M0 0 C5.452999 1.56818272 9.76486783 3.03810217 14 7 C13.34 7 12.68 7 12 7 C12 7.99 12 8.98 12 10 C10.375 10.75 10.375 10.75 8 11 C4.75 9.0625 4.75 9.0625 2 7 C1.01 7.66 0.02 8.32 -1 9 C-2 6 -2 6 -1.0625 3.9375 C-0.711875 3.298125 -0.36125 2.65875 0 2 C0 1.34 0 0.68 0 0 Z " fill="#9ACD7F" transform="translate(54,8)"/>
<path d="M0 0 C1.25 2.375 1.25 2.375 2 5 C2.86625 5.66 3.7325 6.32 4.625 7 C7 9 7 9 7.3125 11.75 C7.209375 12.4925 7.10625 13.235 7 14 C6.01 14.33 5.02 14.66 4 15 C3.03980636 13.41779413 2.08192202 11.83418669 1.125 10.25 C0.59132813 9.36828125 0.05765625 8.4865625 -0.4921875 7.578125 C-1.74672497 5.43306093 -2.88867969 3.22264061 -4 1 C-15.385 0.505 -15.385 0.505 -27 0 C-27 -0.33 -27 -0.66 -27 -1 C-6.67536067 -2.62246312 -6.67536067 -2.62246312 0 0 Z " fill="#4DA870" transform="translate(73,38)"/>
<path d="M0 0 C-0.0625 1.8125 -0.0625 1.8125 -1 4 C-6.09188583 6.95329378 -9.12798231 7.31820805 -15 6 C-14.67 4.02 -14.34 2.04 -14 0 C-13.34 0.33 -12.68 0.66 -12 1 C-11.278125 0.67 -10.55625 0.34 -9.8125 0 C-6.22068769 -1.27708882 -3.69212443 -0.72394597 0 0 Z " fill="#2B4C47" transform="translate(52,119)"/>
<path d="M0 0 C0.99 0.33 1.98 0.66 3 1 C2.94199219 1.68964844 2.88398438 2.37929688 2.82421875 3.08984375 C2.50706959 9.69560764 3.31954237 13.7011028 7.00390625 19.22265625 C7.33261719 19.80917969 7.66132813 20.39570312 8 21 C7.67 21.66 7.34 22.32 7 23 C5.62437146 21.71034824 4.29233607 20.37310707 3 19 C3 18.34 3 17.68 3 17 C2.34 17 1.68 17 1 17 C1 15.35 1 13.7 1 12 C0.01 12 -0.98 12 -2 12 C-2.28571429 3.42857143 -2.28571429 3.42857143 0 0 Z " fill="#78C881" transform="translate(24,54)"/>
<path d="M0 0 C4.92249987 0.46148436 9.27737682 2.80390169 13 6 C13 6.99 13 7.98 13 9 C11.3603125 8.4740625 11.3603125 8.4740625 9.6875 7.9375 C6.09079627 6.66960546 6.09079627 6.66960546 3 8 C3 7.34 3 6.68 3 6 C1.35 6 -0.3 6 -2 6 C-2 3 -2 3 0 0 Z " fill="#489E73" transform="translate(78,22)"/>
<path d="M0 0 C9.9 0 19.8 0 30 0 C30.66 1.32 31.32 2.64 32 4 C31.01 3.34 30.02 2.68 29 2 C26.34971405 1.7831476 26.34971405 1.7831476 23.37890625 1.953125 C21.72858398 2.01693359 21.72858398 2.01693359 20.04492188 2.08203125 C18.89572266 2.13746094 17.74652344 2.19289062 16.5625 2.25 C15.41716797 2.28996094 14.27183594 2.32992187 13.09179688 2.37109375 C5.38029823 2.70500299 1.39051867 3.22444428 -4 9 C-4 8.01 -4 7.02 -4 6 C-3.34 6 -2.68 6 -2 6 C-1.34 4.02 -0.68 2.04 0 0 Z " fill="#C0F2D0" transform="translate(39,38)"/>
<path d="M0 0 C0.99 0.66 1.98 1.32 3 2 C3.30620622 4.67780344 3.41813514 7.0756212 3.375 9.75 C3.38660156 10.45382813 3.39820312 11.15765625 3.41015625 11.8828125 C3.38362676 16.64043505 2.48266958 19.82280991 0 24 C-0.80099855 21.59700436 -1.05992696 20.23970784 -0.4375 17.75 C0.09579706 14.39784706 -0.58240177 12.08374497 -1.52734375 8.8671875 C-2.44860998 5.22780518 -1.75185378 3.17523497 0 0 Z " fill="#1B3635" transform="translate(119,54)"/>
<path d="M0 0 C0.66 0.33 1.32 0.66 2 1 C-1.90395947 6.489943 -5.6887992 10.80293181 -11.21484375 14.66796875 C-13.6225572 16.46453393 -15.25491327 18.56934348 -17 21 C-18.33333333 22.66666667 -19.66666667 24.33333333 -21 26 C-21.66 25.67 -22.32 25.34 -23 25 C-18.16222846 18.28087286 -12.50691515 12.36459793 -6.625 6.5625 C-5.66400391 5.60827148 -5.66400391 5.60827148 -4.68359375 4.63476562 C-3.12469121 3.08749668 -1.56348584 1.54263508 0 0 Z " fill="#D3F18E" transform="translate(40,12)"/>
<path d="M0 0 C4.36414627 0.48490514 6.19326937 1.65003119 9 5 C10.36821051 6.97630407 11.70951192 8.97209016 13 11 C12.67 11.66 12.34 12.32 12 13 C11.34 13 10.68 13 10 13 C9.34 12.34 8.68 11.68 8 11 C5.93125966 10.3574765 5.93125966 10.3574765 4 10 C3.566875 8.2984375 3.566875 8.2984375 3.125 6.5625 C2.75375 5.386875 2.3825 4.21125 2 3 C1.34 2.67 0.68 2.34 0 2 C0 1.34 0 0.68 0 0 Z " fill="#22A25E" transform="translate(26,75)"/>
<path d="M0 0 C5.59282842 1.36410449 8.91193811 4.15383526 13 8 C12.67 9.32 12.34 10.64 12 12 C11.01 11.67 10.02 11.34 9 11 C8.01 11.495 8.01 11.495 7 12 C6.896875 11.360625 6.79375 10.72125 6.6875 10.0625 C6.460625 9.381875 6.23375 8.70125 6 8 C5.01 7.67 4.02 7.34 3 7 C3 6.34 3 5.68 3 5 C1.68 4.67 0.36 4.34 -1 4 C-0.34 4 0.32 4 1 4 C0.67 2.68 0.34 1.36 0 0 Z " fill="#336053" transform="translate(102,36)"/>
<path d="M0 0 C0.33 0 0.66 0 1 0 C1.26218749 3.14624993 1.24754367 4.61837017 -0.5 7.3125 C-1.2425 8.1478125 -1.2425 8.1478125 -2 9 C-1.34 9 -0.68 9 0 9 C0 10.32 0 11.64 0 13 C-2.1385485 15.1385485 -3.13275314 15.42655063 -6 16 C-7.00893926 9.61005132 -3.57081515 5.00507608 0 0 Z " fill="#294D49" transform="translate(76,78)"/>
<path d="M0 0 C4.30764815 1.56641751 8.06171464 3.68336156 12 6 C10.25 7.5625 10.25 7.5625 8 9 C5.75 8.6875 5.75 8.6875 4 8 C4 7.01 4 6.02 4 5 C2.02 5 0.04 5 -2 5 C-1.34 4.67 -0.68 4.34 0 4 C0 2.68 0 1.36 0 0 Z " fill="#61AF7F" transform="translate(68,15)"/>
<path d="M0 0 C0.66 1.32 1.32 2.64 2 4 C2.33 3.01 2.66 2.02 3 1 C3.66 1.33 4.32 1.66 5 2 C4.67 3.32 4.34 4.64 4 6 C4.66 6 5.32 6 6 6 C6 6.99 6 7.98 6 9 C5.34 9 4.68 9 4 9 C3.34 10.98 2.68 12.96 2 15 C1.67 15 1.34 15 1 15 C-0.03590199 9.94997778 -0.10251672 5.12583611 0 0 Z " fill="#A6D38D" transform="translate(6,53)"/>
<path d="M0 0 C3.93619738 0.56231391 6.79192446 1.61685817 10 4 C10 4.99 10 5.98 10 7 C10.99 7.33 11.98 7.66 13 8 C6.375 8.25 6.375 8.25 3 6 C2.67 6.66 2.34 7.32 2 8 C2 7.34 2 6.68 2 6 C1.34 5.67 0.68 5.34 0 5 C1.32 4.34 2.64 3.68 4 3 C2.68 2.01 1.36 1.02 0 0 Z " fill="#B3D18B" transform="translate(44,3)"/>
<path d="M0 0 C0.33 0 0.66 0 1 0 C1 1.98 1 3.96 1 6 C1.66 6 2.32 6 3 6 C3.09688221 11.44693314 3.12862175 16.63904667 2 22 C1.67 22 1.34 22 1 22 C0.02700844 17.14270355 -0.12038805 12.5499375 -0.0625 7.625 C-0.05798828 6.88894531 -0.05347656 6.15289062 -0.04882812 5.39453125 C-0.03715142 3.59631842 -0.01922011 1.79814803 0 0 Z " fill="#5AAC73" transform="translate(6,70)"/>
<path d="M0 0 C1.32 0 2.64 0 4 0 C4.66 0.66 5.32 1.32 6 2 C6.99 2.33 7.98 2.66 9 3 C8.25 4.9375 8.25 4.9375 7 7 C4.875 7.75 4.875 7.75 3 8 C0.37613513 4.93882432 0 4.26826873 0 0 Z " fill="#388562" transform="translate(9,108)"/>
<path d="M0 0 C6.57791873 0.41044485 12.74051886 0.86608597 19 3 C19 3.33 19 3.66 19 4 C17.41058594 3.98259766 17.41058594 3.98259766 15.7890625 3.96484375 C14.40104342 3.95546524 13.01302245 3.94636511 11.625 3.9375 C10.57699219 3.92493164 10.57699219 3.92493164 9.5078125 3.91210938 C5.62704624 3.8164558 5.62704624 3.8164558 2 5 C1.34 3.35 0.68 1.7 0 0 Z " fill="#5C8A79" transform="translate(39,88)"/>
<path d="M0 0 C0.33 0.66 0.66 1.32 1 2 C3.32156597 2.40729228 5.6568787 2.74438677 8 3 C8.33 3.99 8.66 4.98 9 6 C2.375 7.125 2.375 7.125 -1 6 C-0.67 4.02 -0.34 2.04 0 0 Z " fill="#34534E" transform="translate(38,119)"/>
<path d="M0 0 C0.33 0 0.66 0 1 0 C1.33 1.65 1.66 3.3 2 5 C2.66 3.35 3.32 1.7 4 0 C4.33 0 4.66 0 5 0 C5.21192221 5.19209404 4.5912689 9.126739 3 14 C2.34 14 1.68 14 1 14 C0.04738513 9.23692563 -0.08333357 4.8333472 0 0 Z " fill="#85C982" transform="translate(6,62)"/>
<path d="M0 0 C3.23060419 0.55700072 5.0658223 1.29215122 7 4 C7.1875 6.6875 7.1875 6.6875 7 9 C6.01 9.33 5.02 9.66 4 10 C0 4.5 0 4.5 0 0 Z " fill="#408F6D" transform="translate(73,43)"/>
<path d="M0 0 C0.61875 0.165 1.2375 0.33 1.875 0.5 C3.96063386 1.07634644 3.96063386 1.07634644 6 1 C6.33 0.67 6.66 0.34 7 0 C9.33297433 -0.04092937 11.66705225 -0.04241723 14 0 C10.4273339 3.25743085 7.88470231 4.78762164 3 5 C2.01 4.34 1.02 3.68 0 3 C0 2.01 0 1.02 0 0 Z " fill="#1F3D3A" transform="translate(71,102)"/>
<path d="M0 0 C1.32 0.33 2.64 0.66 4 1 C3.67 3.31 3.34 5.62 3 8 C2.34 7.34 1.68 6.68 1 6 C0.01 7.485 0.01 7.485 -1 9 C-1.99 9 -2.98 9 -4 9 C-2.80100302 5.9168649 -1.52299523 2.93720508 0 0 Z " fill="#2D524C" transform="translate(81,69)"/>
<path d="M0 0 C4.95 0.99 9.9 1.98 15 3 C14.67 3.66 14.34 4.32 14 5 C12.06183265 4.8858134 10.12444901 4.75826577 8.1875 4.625 C7.10855469 4.55539063 6.02960937 4.48578125 4.91796875 4.4140625 C2 4 2 4 -1 2 C-0.67 1.34 -0.34 0.68 0 0 Z " fill="#5C766F" transform="translate(25,122)"/>
<path d="M0 0 C1.18613892 0.00785522 1.18613892 0.00785522 2.39624023 0.01586914 C3.67724609 0.02070312 3.67724609 0.02070312 4.98413086 0.02563477 C5.88196289 0.03401367 6.77979492 0.04239258 7.70483398 0.05102539 C8.6065332 0.05553711 9.50823242 0.06004883 10.43725586 0.06469727 C12.67234712 0.07652315 14.90730835 0.09300319 17.14233398 0.11352539 C17.14233398 0.44352539 17.14233398 0.77352539 17.14233398 1.11352539 C16.03374023 1.16250977 14.92514648 1.21149414 13.78295898 1.26196289 C12.31939334 1.33701754 10.85585286 1.4125642 9.39233398 1.48852539 C8.29791992 1.53493164 8.29791992 1.53493164 7.18139648 1.58227539 C0.5327315 1.94492984 -2.37605405 3.31179829 -6.85766602 8.11352539 C-6.85766602 7.12352539 -6.85766602 6.13352539 -6.85766602 5.11352539 C-6.19766602 5.11352539 -5.53766602 5.11352539 -4.85766602 5.11352539 C-4.39360352 4.15446289 -4.39360352 4.15446289 -3.92016602 3.17602539 C-2.35827459 0.1441185 -2.35827459 0.1441185 0 0 Z " fill="#E5FBE8" transform="translate(41.857666015625,38.886474609375)"/>
<path d="M0 0 C2.84550012 0.66010476 5.52325999 1.51724966 8.25 2.5625 C8.95640625 2.83191406 9.6628125 3.10132812 10.390625 3.37890625 C10.92171875 3.58386719 11.4528125 3.78882812 12 4 C11.01 4.33 10.02 4.66 9 5 C9 5.66 9 6.32 9 7 C5.21616321 6.07506212 3.43306306 5.60628829 1.125 2.375 C0.75375 1.59125 0.3825 0.8075 0 0 Z " fill="#316351" transform="translate(16,117)"/>
<path d="M0 0 C0 0.66 0 1.32 0 2 C-0.99 2 -1.98 2 -3 2 C-3.33 2.99 -3.66 3.98 -4 5 C-5.875 6.75 -5.875 6.75 -8 8 C-8.99 7.67 -9.98 7.34 -11 7 C-5.34042553 0 -5.34042553 0 0 0 Z " fill="#4BC36A" transform="translate(72,20)"/>
<path d="M0 0 C5.28 0 10.56 0 16 0 C15.67 0.66 15.34 1.32 15 2 C9.24632454 3.19041561 5.51031263 2.95156906 0 1 C0 0.67 0 0.34 0 0 Z " fill="#2F564F" transform="translate(53,90)"/>
<path d="M0 0 C2.83967231 2.83967231 4.8346853 5.64002892 7 9 C6.67 9.66 6.34 10.32 6 11 C5.34 11 4.68 11 4 11 C3.34 10.34 2.68 9.68 2 9 C1.34 9 0.68 9 0 9 C0 6.03 0 3.06 0 0 Z " fill="#58A47E" transform="translate(32,77)"/>
<path d="M0 0 C3.125 0.375 3.125 0.375 6 1 C5.01 1.495 5.01 1.495 4 2 C4 2.99 4 3.98 4 5 C2.68 5.33 1.36 5.66 0 6 C-0.66 4.68 -1.32 3.36 -2 2 C-1.34 1.34 -0.68 0.68 0 0 Z " fill="#84C783" transform="translate(62,13)"/>
<path d="M0 0 C0.66 0 1.32 0 2 0 C2.8638129 1.45264038 3.71580454 2.9123163 4.5625 4.375 C5.27599609 5.59316406 5.27599609 5.59316406 6.00390625 6.8359375 C6.33261719 7.55007812 6.66132813 8.26421875 7 9 C6.67 9.66 6.34 10.32 6 11 C4.62437146 9.71034824 3.29233607 8.37310707 2 7 C2 6.34 2 5.68 2 5 C1.34 5 0.68 5 0 5 C0 3.35 0 1.7 0 0 Z " fill="#64B682" transform="translate(25,66)"/>
<path d="M0 0 C2.97 0.495 2.97 0.495 6 1 C6.33 2.65 6.66 4.3 7 6 C6.38125 5.814375 5.7625 5.62875 5.125 5.4375 C2.95839822 4.76313824 2.95839822 4.76313824 1 6 C0.67 4.02 0.34 2.04 0 0 Z " fill="#2D5049" transform="translate(108,42)"/>
<path d="M0 0 C0.99 0.66 1.98 1.32 3 2 C3.1875 4.625 3.1875 4.625 3 7 C2.01 7 1.02 7 0 7 C-0.66 5.68 -1.32 4.36 -2 3 C-1.34 2.01 -0.68 1.02 0 0 Z " fill="#2F4A49" transform="translate(119,54)"/>
<path d="M0 0 C0.99 0.33 1.98 0.66 3 1 C2.01 1.99 1.02 2.98 0 4 C-0.33 3.01 -0.66 2.02 -1 1 C-0.67 0.67 -0.34 0.34 0 0 Z M-7 8 C-6.34 8 -5.68 8 -5 8 C-5.66 9.32 -6.32 10.64 -7 12 C-7.66 11.34 -8.32 10.68 -9 10 C-8.34 9.34 -7.68 8.68 -7 8 Z " fill="#67CF71" transform="translate(61,19)"/>
<path d="M0 0 C0.33 0 0.66 0 1 0 C1.31563182 5.26053037 0.66590937 8.44573816 -2 13 C-3.18771723 9.57056481 -2.80226223 7.62215325 -1.5625 4.25 C-1.27503906 3.45078125 -0.98757812 2.6515625 -0.69140625 1.828125 C-0.46324219 1.22484375 -0.23507813 0.6215625 0 0 Z " fill="#354747" transform="translate(121,65)"/>
<path d="M0 0 C0.99 0.33 1.98 0.66 3 1 C1.6302836 4.99500618 -0.25722422 7.80009492 -3 11 C-3 9.35 -3 7.7 -3 6 C-2.01 5.67 -1.02 5.34 0 5 C0 3.35 0 1.7 0 0 Z " fill="#92CD95" transform="translate(30,49)"/>
<path d="M0 0 C2.63556905 1.31778453 4.72269553 3.14219898 7 5 C4.36 5 1.72 5 -1 5 C-1.33 4.01 -1.66 3.02 -2 2 C-1.34 1.34 -0.68 0.68 0 0 Z " fill="#DFEDAD" transform="translate(43,2)"/>
<path d="M0 0 C0.33 0 0.66 0 1 0 C1 1.98 1 3.96 1 6 C1.66 6 2.32 6 3 6 C3 7.98 3 9.96 3 12 C2.34 12 1.68 12 1 12 C-0.3271261 8.0186217 -0.06915913 4.14954773 0 0 Z " fill="#6FB77A" transform="translate(6,70)"/>
<path d="M0 0 C0.33 0.99 0.66 1.98 1 3 C0.34 3 -0.32 3 -1 3 C-1.66 4.98 -2.32 6.96 -3 9 C-3.33 9 -3.66 9 -4 9 C-3.6875 5.625 -3.6875 5.625 -3 2 C-2.01 1.34 -1.02 0.68 0 0 Z " fill="#96D587" transform="translate(11,59)"/>
<path d="M0 0 C0 1.98 0 3.96 0 6 C-0.99 6.495 -0.99 6.495 -2 7 C-2.99 5.02 -3.98 3.04 -5 1 C-2 0 -2 0 0 0 Z " fill="#417D60" transform="translate(83,53)"/>
<path d="M0 0 C3.96 1.98 3.96 1.98 8 4 C8 4.33 8 4.66 8 5 C5.69 5 3.38 5 1 5 C0.67 3.35 0.34 1.7 0 0 Z " fill="#518C72" transform="translate(92,29)"/>
<path d="M0 0 C2.9375 0.8125 2.9375 0.8125 6 2 C6.33 2.99 6.66 3.98 7 5 C6.34 5 5.68 5 5 5 C5 4.34 5 3.68 5 3 C3.35 3 1.7 3 0 3 C0 2.01 0 1.02 0 0 Z " fill="#1EAC5F" transform="translate(76,25)"/>
<path d="M0 0 C2.475 0.99 2.475 0.99 5 2 C4.67 2.99 4.34 3.98 4 5 C2.02 5 0.04 5 -2 5 C-1.34 4.67 -0.68 4.34 0 4 C0 2.68 0 1.36 0 0 Z " fill="#80C188" transform="translate(68,15)"/>
<path d="M0 0 C0.99 0 1.98 0 3 0 C3 0.66 3 1.32 3 2 C3.66 2 4.32 2 5 2 C4.67 2.99 4.34 3.98 4 5 C2.68 4.34 1.36 3.68 0 3 C0 2.01 0 1.02 0 0 Z " fill="#133130" transform="translate(102,86)"/>
<path d="M0 0 C0.33 0 0.66 0 1 0 C1.125 2.375 1.125 2.375 1 5 C0.34 5.66 -0.32 6.32 -1 7 C-1.99 6.67 -2.98 6.34 -4 6 C-2.69593116 3.98079663 -1.36176581 1.98075027 0 0 Z " fill="#32534D" transform="translate(76,78)"/>
<path d="M0 0 C0.99 0.33 1.98 0.66 3 1 C1.02 1.99 1.02 1.99 -1 3 C-1 3.66 -1 4.32 -1 5 C-1.99 4.67 -2.98 4.34 -4 4 C-2.68 2.68 -1.36 1.36 0 0 Z " fill="#98D590" transform="translate(61,11)"/>
</svg>
